<?xml version="1.0" encoding="UTF-8" standalone="no"?>
<!-- Created with Inkscape (http://www.inkscape.org/) -->

<svg
   xmlns:dc="http://purl.org/dc/elements/1.1/"
   xmlns:cc="http://creativecommons.org/ns#"
   xmlns:rdf="http://www.w3.org/1999/02/22-rdf-syntax-ns#"
   xmlns:svg="http://www.w3.org/2000/svg"
   xmlns="http://www.w3.org/2000/svg"
   xmlns:sodipodi="http://sodipodi.sourceforge.net/DTD/sodipodi-0.dtd"
   xmlns:inkscape="http://www.inkscape.org/namespaces/inkscape"
   width="210mm"
   height="297mm"
   id="svg3185"
   version="1.1"
   inkscape:version="0.48.3.1 r9886"
   inkscape:export-filename="C:\Users\lenovo\Documents\Visual Studio 2010\Projects\ControldeMasaMuscular\ControldeMasaMuscular.Movil\SplashScreenImage.jpg.png"
   inkscape:export-xdpi="90"
   inkscape:export-ydpi="90"
   sodipodi:docname="dibujo-5.svg">
  <defs
     id="defs3187" />
  <sodipodi:namedview
     id="base"
     pagecolor="#ffffff"
     bordercolor="#666666"
     borderopacity="1.0"
     inkscape:pageopacity="0.0"
     inkscape:pageshadow="2"
     inkscape:zoom="0.35"
     inkscape:cx="350"
     inkscape:cy="520"
     inkscape:document-units="px"
     inkscape:current-layer="layer1"
     showgrid="false"
     inkscape:window-width="1366"
     inkscape:window-height="706"
     inkscape:window-x="-8"
     inkscape:window-y="-8"
     inkscape:window-maximized="1" />
  <metadata
     id="metadata3190">
    <rdf:RDF>
      <cc:Work
         rdf:about="">
        <dc:format>image/svg+xml</dc:format>
        <dc:type
           rdf:resource="http://purl.org/dc/dcmitype/StillImage" />
        <dc:title></dc:title>
      </cc:Work>
    </rdf:RDF>
  </metadata>
  <g
     inkscape:label="Capa 1"
     inkscape:groupmode="layer"
     id="layer1">
    <rect
       style="fill:#000000;fill-opacity:1;fill-rule:evenodd;stroke:none"
       id="rect2985"
       width="588.57141"
       height="980"
       x="5.7143378"
       y="36.647903" />
    <rect
       style="fill:#ffffff;fill-opacity:1;stroke:none"
       id="rect3922"
       width="594.28571"
       height="91.428566"
       x="5.7142768"
       y="893.79071" />
    <g
       id="g3071"
       transform="matrix(1.0166676,0,0,1.3195161,876.49248,-78.908306)">
      <g
         id="g3392"
         transform="matrix(5.5366315,0,0,6.7714286,-818.07095,45.219326)"
         style="fill:#ffffff">
        <ellipse
           id="ellipse3394"
           ry="4.6729999"
           rx="4.711"
           cy="36.410999"
           cx="73.353996"
           sodipodi:cx="73.353996"
           sodipodi:cy="36.410999"
           sodipodi:rx="4.711"
           sodipodi:ry="4.6729999"
           d="m 78.064996,36.410999 c 0,2.580827 -2.109186,4.673 -4.711,4.673 -2.601813,0 -4.711,-2.092173 -4.711,-4.673 0,-2.580826 2.109187,-4.673 4.711,-4.673 2.601814,0 4.711,2.092174 4.711,4.673 z"
           style="fill:#ffffff" />
        <path
           id="path3396"
           d="m 78.327,48.48 1.764,0.003 3.605,12.592 c 0.277,0.967 1.357,1.498 2.409,1.195 1.058,-0.301 1.725,-1.224 1.369,-2.433 L 83.765,46.92 C 82.283,41.754 77.96,41.915 77.96,41.915 h -9.213 c 0,0 -4.321,-0.161 -5.805,5.005 L 59.23,59.838 c -0.353,1.209 0.314,2.132 1.372,2.433 1.053,0.303 2.133,-0.229 2.406,-1.195 l 3.609,-12.592 1.76,-0.003 -4.817,16.799 h 19.588 l -4.821,-16.8 z"
           inkscape:connector-curvature="0"
           style="fill:#ffffff" />
        <path
           id="path3402"
           d="m 13.635,35.584 c -0.265,0.572 -0.845,0.971 -1.518,0.971 -0.674,0 -1.253,-0.399 -1.519,-0.971 H 7.537 c -0.05,0.269 -0.079,0.543 -0.079,0.828 0,2.579 2.096,4.671 4.677,4.671 2.584,0 4.677,-2.092 4.677,-4.671 0,-0.284 -0.03,-0.559 -0.078,-0.828 h -3.099 z"
           inkscape:connector-curvature="0"
           style="fill:#ffffff" />
        <path
           id="path3404"
           d="m 10.494,34.481 c 0.184,-0.725 0.839,-1.265 1.623,-1.265 0.784,0 1.444,0.54 1.621,1.265 h 2.653 c -0.736,-1.616 -2.363,-2.742 -4.256,-2.742 -1.892,0 -3.52,1.126 -4.256,2.742 h 2.615 z"
           inkscape:connector-curvature="0"
           style="fill:#ffffff" />
        <path
           id="path3406"
           d="m 12.128,47.284 c 1.687,0 2.68,-0.617 2.716,-5.281 -1.693,0 -3.686,0 -5.357,0 0.039,4.664 0.944,5.281 2.641,5.281 z"
           inkscape:connector-curvature="0"
           style="fill:#ffffff" />
        <path
           id="path3408"
           d="m 18.497,49.414 h 1.709 c 0,0 0,11.75 0,13.062 0,1.132 0.916,2.052 2.041,2.052 1.132,0 2.023,-0.92 2.023,-2.052 0,-1.128 0,-12.803 0,-14.488 0,-3.306 -2.709,-5.985 -6.014,-5.985 -0.382,0 -1.152,0 -2.116,0 0,4.552 -1.329,6.479 -3.288,6.479 v 5.265 c 0.577,0.248 0.986,0.823 0.986,1.491 0,0.894 -0.717,1.632 -1.612,1.632 -0.897,0 -1.612,-0.712 -1.612,-1.61 0,-0.672 0.403,-1.242 0.981,-1.49 v -5.268 c -2.058,0 -3.325,-2.103 -3.325,-6.499 -0.923,0 -1.654,0 -2.012,0 -3.309,0 -6.258,2.679 -6.258,5.985 0,1.685 0,13.36 0,14.488 0,1.132 0.886,2.052 2.018,2.052 1.129,0 2.047,-0.92 2.047,-2.052 0,-1.312 0,-13.062 0,-13.062 H 5.757 V 65.28 h 12.74 V 49.414 z"
           inkscape:connector-curvature="0"
           style="fill:#ffffff" />
        <path
           id="path3410"
           d="m 34.897,42.122 v 8.354 h -1.25 c -0.237,0 -0.428,-0.19 -0.428,-0.428 V 39.267 c 0,-0.365 0.271,-0.662 0.645,-0.662 h 5.525 c 0.372,0 0.645,0.296 0.645,0.661 v 0.633 h 8.541 c 0.238,0 0.429,0.192 0.429,0.427 v 2.424 h -7.29 v -0.635 c 0,-0.364 -0.273,-0.661 -0.648,-0.661 h -5.52 c -0.377,10e-4 -0.649,0.302 -0.649,0.668 z"
           inkscape:connector-curvature="0"
           style="fill:#ffffff" />
        <path
           id="path3412"
           d="m 52.36,55.535 c 0,0.238 -0.19,0.428 -0.428,0.428 h -13.676 -1.25 c -0.238,0 -0.429,-0.189 -0.429,-0.428 V 44.754 c 0,-0.365 0.273,-0.662 0.646,-0.662 h 5.522 c 0.374,0 0.647,0.295 0.647,0.66 v 0.633 h 8.541 c 0.237,0 0.428,0.191 0.428,0.427 v 9.723 z m -6.619,-6.137 v -2.543 h -2.544 v 2.543 h -2.544 v 2.544 h 2.544 v 2.543 h 2.544 v -2.543 h 2.543 v -2.544 h -2.543 z"
           inkscape:connector-curvature="0"
           style="fill:#ffffff" />
        <path
           id="path3414"
           d="M 53.301,20.135 H 32.279 c -2.58,0 -4.672,2.091 -4.672,4.671 v 50.27 c 0,2.58 2.092,4.672 4.672,4.672 H 53.3 c 2.58,0 4.671,-2.092 4.671,-4.672 v -50.27 c 0.001,-2.58 -2.09,-4.671 -4.67,-4.671 z m 2.336,49.174 H 29.943 V 30.574 h 25.693 v 38.735 z"
           inkscape:connector-curvature="0"
           style="fill:#ffffff" />
      </g>
    </g>
  </g>
</svg>
